<?xml version="1.0" standalone="no"?><!DOCTYPE svg PUBLIC "-//W3C//DTD SVG 1.1//EN" "http://www.w3.org/Graphics/SVG/1.1/DTD/svg11.dtd"><svg t="1619343403507" class="icon" viewBox="0 0 1024 1024" version="1.1" xmlns="http://www.w3.org/2000/svg" p-id="36371" xmlns:xlink="http://www.w3.org/1999/xlink" width="64" height="64"><defs><style type="text/css"></style></defs><path d="M473.0368 549.12V127.2832c-56.9344 0-112.0256 11.264-164.2496 33.6896a421.376 421.376 0 0 0-134.4 90.7264 427.4176 427.4176 0 0 0-90.5216 134.656A415.3856 415.3856 0 0 0 51.2 549.12c0 57.0368 11.2128 112.2304 33.5872 164.608a422.4 422.4 0 0 0 90.5216 134.656 426.3936 426.3936 0 0 0 134.4 90.7264A413.0304 413.0304 0 0 0 473.9584 972.8c56.9344 0 111.9744-11.264 164.2496-33.6896a421.376 421.376 0 0 0 134.4-90.7264 427.4176 427.4176 0 0 0 90.5216-134.656c22.3744-52.3776 33.5872-107.52 33.5872-164.608h-65.3312" p-id="36372"></path><path d="M939.008 309.9648a423.3216 423.3216 0 0 0-90.88-135.0144 428.3904 428.3904 0 0 0-135.0144-90.9312A423.5776 423.5776 0 0 0 549.0176 51.2h-32.768v456.5504H972.8v-32.768a415.744 415.744 0 0 0-33.792-165.0176z" p-id="36373"></path></svg>