<?xml version="1.0" standalone="no"?><!DOCTYPE svg PUBLIC "-//W3C//DTD SVG 1.1//EN" "http://www.w3.org/Graphics/SVG/1.1/DTD/svg11.dtd"><svg t="1619343615747" class="icon" viewBox="0 0 1024 1024" version="1.1" xmlns="http://www.w3.org/2000/svg" p-id="41605" xmlns:xlink="http://www.w3.org/1999/xlink" width="64" height="64"><defs><style type="text/css"></style></defs><path d="M453.822171 195.671771A44.324571 44.324571 0 0 1 453.485714 190.171429v-29.257143a43.885714 43.885714 0 0 1 43.885715-43.885715h29.257142a43.885714 43.885714 0 0 1 43.885715 43.885715v29.257143c0 1.857829-0.117029 3.701029-0.336457 5.500342C712.016457 222.866286 819.2 347.604114 819.2 497.371429v146.285714h14.628571a58.514286 58.514286 0 1 1 0 117.028571H190.171429a58.514286 58.514286 0 1 1 0-117.028571h14.628571V497.371429c0-149.767314 107.183543-274.505143 249.022171-301.699658z m9.888915 426.978743a14.628571 14.628571 0 0 0 25.556114 13.312l125.5424-163.796114a23.405714 23.405714 0 0 0-18.578286-37.639314h-61.527771l46.869943-109.333943a23.405714 23.405714 0 0 0-21.504-32.621714h-41.984a23.405714 23.405714 0 0 0-21.547886 14.262857l-73.142857 172.397714a23.405714 23.405714 0 0 0 21.562514 32.533943H498.834286l-35.108572 110.884571zM672.138971 804.571429c-21.430857 59.348114-85.1968 102.4-160.519314 102.4-75.337143 0-139.103086-43.051886-160.533943-102.4h321.053257z" p-id="41606"></path></svg>