<?xml version="1.0" standalone="no"?><!DOCTYPE svg PUBLIC "-//W3C//DTD SVG 1.1//EN" "http://www.w3.org/Graphics/SVG/1.1/DTD/svg11.dtd"><svg t="1619343823115" class="icon" viewBox="0 0 1024 1024" version="1.1" xmlns="http://www.w3.org/2000/svg" p-id="42387" xmlns:xlink="http://www.w3.org/1999/xlink" width="64" height="64"><defs><style type="text/css"></style></defs><path d="M884.864 64H138.624A74.88 74.88 0 0 0 64 138.624V238.08a74.88 74.88 0 0 0 74.624 74.624h746.24a74.88 74.88 0 0 0 74.624-74.624V138.624A74.88 74.88 0 0 0 884.864 64z m0 316.352H138.624A74.88 74.88 0 0 0 64 454.912v99.52a74.88 74.88 0 0 0 74.624 74.624h746.24a74.88 74.88 0 0 0 74.624-74.624V454.912a74.88 74.88 0 0 0-74.624-74.56z m0 316.288H138.624A74.88 74.88 0 0 0 64 771.264v99.456a74.88 74.88 0 0 0 74.624 74.624h746.24a74.88 74.88 0 0 0 74.624-74.624v-99.456a74.88 74.88 0 0 0-74.624-74.624z" fill="#515151" p-id="42388"></path><path d="M210.048 757.76a63.232 63.232 0 0 1 0 126.528 63.232 63.232 0 0 1 0-126.528z m0-316.352a63.232 63.232 0 0 1 0 126.528 63.232 63.232 0 0 1 0-126.528z m0-316.288a63.232 63.232 0 0 1 0 126.528 63.232 63.232 0 0 1 0-126.528z" fill="#515151" opacity=".8" p-id="42389"></path></svg>