<?xml version="1.0" standalone="no"?><!DOCTYPE svg PUBLIC "-//W3C//DTD SVG 1.1//EN" "http://www.w3.org/Graphics/SVG/1.1/DTD/svg11.dtd"><svg t="1619343439604" class="icon" viewBox="0 0 1185 1024" version="1.1" xmlns="http://www.w3.org/2000/svg" p-id="38993" xmlns:xlink="http://www.w3.org/1999/xlink" width="74.0625" height="64"><defs><style type="text/css"></style></defs><path d="M233.984 442.181818l212.48-187.298909a32.907636 32.907636 0 0 1 51.2 9.914182l59.392 113.896727 187.392-196.608a32.954182 32.954182 0 0 1 47.104-0.512c13.172364 13.032727 13.358545 34.443636 0.512 47.848727l-218.624 229.934546a32.442182 32.442182 0 0 1-28.672 9.867636 33.326545 33.326545 0 0 1-24.576-17.687272L460.8 334.475636l-182.784 159.744a33.233455 33.233455 0 0 1-47.336727-3.909818 34.490182 34.490182 0 0 1 3.816727-48.128h-0.512zM153.6 676.305455h716.8c56.552727 0 102.4-46.592 102.4-104.075637V104.029091C972.8 46.592 926.952727 0 870.4 0H153.6C97.047273 0 51.2 46.545455 51.2 104.029091v468.247273c0 57.437091 45.847273 103.982545 102.4 103.982545z m819.2 104.02909H51.2c-28.299636 0-51.2 23.272727-51.2 51.991273C0 861.090909 22.900364 884.363636 51.2 884.363636h921.6c28.253091 0 51.2-23.272727 51.2-52.037818 0-28.718545-22.946909-51.991273-51.2-51.991273z" p-id="38994"></path></svg>