<?xml version="1.0" standalone="no"?><!DOCTYPE svg PUBLIC "-//W3C//DTD SVG 1.1//EN" "http://www.w3.org/Graphics/SVG/1.1/DTD/svg11.dtd"><svg t="1619343382712" class="icon" viewBox="0 0 1024 1024" version="1.1" xmlns="http://www.w3.org/2000/svg" p-id="34966" xmlns:xlink="http://www.w3.org/1999/xlink" width="64" height="64"><defs><style type="text/css"></style></defs><path d="M968.6 279.9C912 169.2 817.2 82.7 701.8 36.4 646.7 14.7 588.3 2.3 529.1 0H495c-66.3 2.5-131.5 17.6-192.1 44.6C211.3 85.9 133.7 153 79.8 237.7 29.4 317.1 1.8 408.8 0 502.9v18.3c1.2 50.5 9.3 100.6 24.9 148.6 21.2 66 56.2 127.4 101.9 179.4C220 955.9 353.4 1019.2 495 1024h34.1c31.2-1.5 62.1-5.4 92.7-11.8 150.9-33 278.7-132.4 347.8-270.6 34.5-68.1 52.7-144.1 54.4-220.3v-18.4c-1.3-77.6-20.2-153.9-55.4-223z m-173-102.7c-17.3 9.6-35 18.2-53.2 26-13-30.5-27.8-60.1-44.3-88.5 35.2 16.3 68.1 37.5 97.5 62.5z m-48.3 275.5h30.9l-38.1 118.6H710L689.5 495l-20.1 76.2H639l-37.5-118.6H632l22.2 77.7 20.4-77.7h30.2l19.8 77.7 22.7-77.6zM548.7 74.8c13.3 1.2 26.5 2.9 39.6 5.3 33.7 45.6 62.3 95.1 85.1 147.6-11 3.1-21.9 5.9-33 8.3-30.2 6.5-60.9 10.7-91.7 12.6V74.8z m0 246.9c36.1-2.5 72.1-6.5 107.4-14.3 14.5-3.2 28.9-6.9 43.2-11 12 37.2 20.9 75.9 27 115.4H548.7v-90.1zM419.3 83.2c18.6-4 37.4-6.9 56.3-8.6v173.1C433.7 244.6 392.3 237 352 225c17.6-49.8 40.2-97.3 67.3-141.8z m-76.8 215.2v0.1c43.5 12 88.1 19.6 133.1 22.6v90.6H312.4c3.3-39.8 9.5-78.8 18.7-116.6l11.4 3.3z m80 154.3l-38.1 118.6h-30.1L333.9 495l-20.1 76.2h-30.5l-37.5-118.6h30.5l22.2 77.7 20.4-77.7h30.2l19.8 77.7 22.7-77.7h30.9z m-106-333.4c-12.4 26-23.5 52.8-33.2 80.4-17.3-7.8-34.3-16.3-50.8-25.7 25.9-21.4 54.2-39.9 84-54.7zM141.6 276.9c11.2-17.6 23.6-34.3 37.1-50 26.7 16.3 54.6 30.8 83.4 43.2C250.4 316 242.7 363.5 239 412c-41.2 1-76.3 27.1-90.7 63.6H74.8c5.9-70.3 28.8-139.1 66.8-198.7zM94.5 647.2c-10.2-32-16.8-65.1-19.6-98.6h73.4c14.7 37.2 50.9 63.7 93.1 63.7h6.4c7 42.3 17.1 84 30.6 124.8-36.9 14.2-72.4 31.7-106.1 52.4-34.5-42.2-61-90.4-77.8-142.3z m130.1 196.4c25.6-14.8 52.3-27.6 79.9-38.2 18.6 42.6 40.6 83.3 65.7 122-53.5-18.3-102.9-46.8-145.6-83.8z m251 104.6c-40.5-50.4-74.4-105.8-100.9-164.8l13.2-3.1h-0.1c28.9-6.6 58.2-10.1 87.8-12.2v180.1z m0-253.3c-43.1 2.7-85.8 9.4-127.6 20-11.2-33.5-19.7-67.8-26-102.6h153.7v82.6zM511.7 495l-20.1 76.2h-30.5l-37.5-118.6h30.5l22.2 77.7 20.4-77.7H527l19.8 77.7 22.7-77.7h30.9l-38.1 118.6h-30.1L511.7 495z m102.6 443.6c-2.6 0.8-5.2 1.5-7.9 2-19 4.2-38.3 6.9-57.6 8.6V768.1c47.1 3.2 93.6 12 138.5 26.3-19.1 50.5-43.5 98.9-73 144.2z m-65.6-243.8v-82.5h181.9c-4.3 38-11.1 75.7-21 112.7-52.2-16.6-106.2-26.7-160.9-30.2z m173.5 202.6c12.3-24.6 23.4-50 33.3-76 14.5 6.8 28.7 14.1 42.5 22.2h1.7c-23.8 20.6-49.8 38.7-77.5 53.8z m129.3-107.1c-23.6-14.5-48-27.5-73.2-39 12.9-46.4 21.5-93.8 26.2-141.7 32.5-7.4 59-30.6 71.1-61.1h73.9c-7.3 88.7-41.5 173-98 241.8z m98-314.7h-73.8c-12.5-31.8-40.7-55.7-75-62-6.7-48.1-17.4-95.5-32.4-141.8 27.8-11.7 54.9-25.4 80.7-40.8 58 69.2 93.2 154.6 100.5 244.6z" p-id="34967"></path></svg>