<?xml version="1.0" standalone="no"?><!DOCTYPE svg PUBLIC "-//W3C//DTD SVG 1.1//EN" "http://www.w3.org/Graphics/SVG/1.1/DTD/svg11.dtd"><svg t="1619343067698" class="icon" viewBox="0 0 1024 1024" version="1.1" xmlns="http://www.w3.org/2000/svg" p-id="30240" xmlns:xlink="http://www.w3.org/1999/xlink" width="64" height="64"><defs><style type="text/css"></style></defs><path d="M670.5 330.8v-57h-169V366h138.3c22 1.5 32.3-10.2 30.7-35.2z m0 0" p-id="30241"></path><path d="M935.1 127.9l-76-65.8-16.2 7.9c-162.3 79.9-293 14.5-317.5 0.5L512.1 63l-13.4 7.6c-24.5 14-155.2 79.3-317.5-0.5l-16.3-8-76 65.8 9.3 18.9c11.6 23.4 49.4 104.6 49.4 166.3 0 13.9-5 38.9-10.7 67.9-10.2 51.8-22.9 115.9-22.9 180.3 0 126 50.6 207.1 150.5 241.3 156.6 53.6 208.1 102.7 224.9 127l22.3 32.6 22.3-32.5c16.9-24.5 68.4-73.6 225.2-127.1C859.1 768.2 909.7 687 909.7 561c0-64.7-13.2-131.5-22.9-180.3l-0.1-0.9c-5.6-28.6-10.5-53.3-10.5-67 0-61.6 37.9-143 49.4-166.4l9.5-18.5z m-558.8 585h-65.9v-314c-8.8 7.4-25.7 15.3-50.5 24.2 1.4 0 0 0.8-4.4 2.2v-41.7c49.8-32.2 81.3-89.3 94.4-171.3h65.9c-10.3 48.3-23.4 88.6-39.5 120.8v379.8z m395.3-206.5h-70.3c7.3 55.7 30 101.8 68.1 138.3v41.7c-77.6-35.1-120.1-95.2-127.5-180h-24.2v206.4h-68.1V506.4h-24.2c-7.3 86.4-49.6 146.4-127.3 180v-41.7c39.5-36.5 62.1-82.7 68.1-138.3h-70.3v-46.1h153.7v-48.2h-114V227.6h300.8v107.6c1.5 52.7-24.2 78.3-76.9 76.8h-41.7v48.2h153.7v46.1h0.1z m0 0" p-id="30242"></path></svg>