<?xml version="1.0" standalone="no"?><!DOCTYPE svg PUBLIC "-//W3C//DTD SVG 1.1//EN" "http://www.w3.org/Graphics/SVG/1.1/DTD/svg11.dtd"><svg t="1619342610599" class="icon" viewBox="0 0 1024 1024" version="1.1" xmlns="http://www.w3.org/2000/svg" p-id="19985" xmlns:xlink="http://www.w3.org/1999/xlink" width="64" height="64"><defs><style type="text/css"></style></defs><path d="M885.4 254.7c-2.7-27.6-21.8-50.2-47.4-55.9-51.9-8.7-103.1-21.2-153.3-37.5-49.2-21.4-95.3-50-137-85-21.9-16.7-51.3-16.7-73.2 0-39.5 38.7-86.6 67.6-138 84.4-47.6 20.9-97.8 34.1-149.1 39.1-26.1 4.5-45.7 27.8-46.9 55.9 0 0-1.6 140.3-1.6 263.8 0 223.6 248.6 439.9 372.9 439.9S846.9 807 880.6 523c8.4-167.7 2.6-267.7 2.6-267.7l2.2-0.6zM750 427.4L490.3 687.3c-11.7 11.8-29.5 13.7-43.2 4.5l-6.8-6.1L297 527.5c-8.7-10-11.6-24.1-7.8-37.1 3.8-12.9 13.9-22.7 26.3-25.7 12.5-3 25.5 1.4 34.2 11.3l118 131.4 233.9-234.8c9.4-9.2 22.7-12.3 34.9-8.3 12.2 4.1 21.4 14.7 24.2 27.9 2.8 13.2-1.3 27.1-10.7 36.2v-1z" p-id="19986"></path></svg>