<?xml version="1.0" standalone="no"?><!DOCTYPE svg PUBLIC "-//W3C//DTD SVG 1.1//EN" "http://www.w3.org/Graphics/SVG/1.1/DTD/svg11.dtd"><svg t="1619343013180" class="icon" viewBox="0 0 1024 1024" version="1.1" xmlns="http://www.w3.org/2000/svg" p-id="26899" xmlns:xlink="http://www.w3.org/1999/xlink" width="64" height="64"><defs><style type="text/css"></style></defs><path d="M473.6 537.6H333.696a64 64 0 0 0-64 64v12.8a64 64 0 0 0 64 64H473.6v139.904a64 64 0 0 0 64 64h12.8a64 64 0 0 0 64-64V678.4h139.904a64 64 0 0 0 64-64v-12.8a64 64 0 0 0-64-64H614.4V397.696a64 64 0 0 0-64-64h-12.8a64 64 0 0 0-64 64V537.6zM128 256h832a64 64 0 0 1 64 64v576a64 64 0 0 1-64 64H128a64 64 0 0 1-64-64V320a64 64 0 0 1 64-64z" fill="#515151" p-id="26900"></path><path d="M675.264 320c24.448 0 44.224-19.84 44.224-44.224V128a44.224 44.224 0 0 0-44.16-44.16H408.512a44.224 44.224 0 0 0-44.224 44.16V275.84c0 24.448 19.84 44.224 44.16 44.224H320a64 64 0 0 1-64-64V64a64 64 0 0 1 64-64h448a64 64 0 0 1 64 64v192a64 64 0 0 1-64 64h-92.736z" fill="#515151" p-id="26901"></path></svg>