<?xml version="1.0" standalone="no"?><!DOCTYPE svg PUBLIC "-//W3C//DTD SVG 1.1//EN" "http://www.w3.org/Graphics/SVG/1.1/DTD/svg11.dtd"><svg t="1619343975071" class="icon" viewBox="0 0 1024 1024" version="1.1" xmlns="http://www.w3.org/2000/svg" p-id="44213" xmlns:xlink="http://www.w3.org/1999/xlink" width="64" height="64"><defs><style type="text/css"></style></defs><path d="M293.637689 238.933333c-32.540444 0-59.164444-27.921067-59.164445-62.0544V73.432178c0-34.133333 26.624-62.0544 59.164445-62.0544 32.540444 0 59.164444 27.921067 59.164444 62.0544v103.446755c0 34.133333-26.624 62.0544-59.164444 62.0544z m414.5152 0c-32.540444 0-59.141689-27.921067-59.141689-62.0544V73.432178c0-34.133333 26.624-62.0544 59.164444-62.0544 32.517689 0 59.141689 27.921067 59.141689 62.0544v103.446755c0 34.133333-26.624 62.0544-59.164444 62.0544z" p-id="44214"></path><path d="M907.081956 79.644444H116.918044C83.990756 79.644444 56.888889 107.428978 56.888889 141.175467v809.415111C56.888889 984.837689 83.990756 1012.622222 117.418667 1012.622222h789.162666c33.427911 0 60.529778-27.784533 60.529778-62.031644V141.175467C966.633244 107.428978 940.009244 79.644444 907.081956 79.644444z m-142.358756 474.430578L504.740978 820.565333a38.206578 38.206578 0 0 1-54.704356 0l-164.135822-168.231822a40.5504 40.5504 0 0 1 0-56.069689 38.206578 38.206578 0 0 1 54.704356 0l137.0112 140.424534 232.880355-238.705778a38.206578 38.206578 0 0 1 54.727111 0 41.028267 41.028267 0 0 1-0.500622 56.092444z m123.949511-368.2304c-0.477867 11.423289-0.477867 27.306667-0.955733 46.648889-0.500622 16.384-0.500622 32.768-0.500622 45.647645H134.849422v-112.64a6.599111 6.599111 0 0 1 6.7584-6.462578h740.784356c3.868444 0 6.7584 2.980978 6.7584 6.462578-0.455111 5.961956-0.455111 13.403022-0.455111 20.343466z" p-id="44215"></path></svg>