<?xml version="1.0" standalone="no"?><!DOCTYPE svg PUBLIC "-//W3C//DTD SVG 1.1//EN" "http://www.w3.org/Graphics/SVG/1.1/DTD/svg11.dtd"><svg t="1619344017730" class="icon" viewBox="0 0 1109 1024" version="1.1" xmlns="http://www.w3.org/2000/svg" p-id="47113" xmlns:xlink="http://www.w3.org/1999/xlink" width="69.3125" height="64"><defs><style type="text/css"></style></defs><path d="M170.325333 555.178667H42.581333c-25.6 0-42.581333-17.066667-42.581333-42.581334s17.066667-42.581333 42.581333-42.581333h127.744c25.514667 0 42.581333 17.066667 42.581334 42.666667 0 25.514667-17.066667 42.496-42.666667 42.496z m84.992-426.752C255.317333 57.514667 312.917333 0 383.829333 0h339.285334a128.426667 128.426667 0 0 1 0 256.938667H383.829333a128.426667 128.426667 0 0 1-128.426666-126.549334c-0.597333 3.925333-4.522667 7.936-8.533334 11.861334l-97.877333 68.096c-12.8 8.533333-21.333333 4.266667-21.333333-12.8v-25.514667H85.248v340.565333c0 25.6-17.066667 42.666667-42.666667 42.666667-25.429333 0-42.496-17.066667-42.496-42.666667v-383.146666c0-25.6 17.066667-42.581333 42.581334-42.581334h85.162666V52.906667c0-8.533333 8.533333-12.8 21.333334-4.266667l97.877333 68.181333c3.84 3.84 7.765333 7.765333 8.362667 11.690667z m723.882667 724.821333h42.581333V555.178667h-85.162666c-25.6 0-42.581333-17.066667-42.581334-42.581334s17.066667-42.581333 42.581334-42.581333h127.744c25.514667 0 42.496 17.066667 42.496 42.666667v383.146666c0 25.514667-17.066667 42.496-42.496 42.496h-85.162667v25.6c0 17.066667-8.533333 21.333333-21.333333 12.8l-97.877334-68.181333c-4.266667-4.266667-8.533333-8.533333-8.533333-12.8 0-4.266667 4.266667-8.533333 8.533333-12.8l97.877334-68.010667c12.8-8.533333 21.333333-4.266667 21.333333 4.266667v34.048z m-425.813333-510.890667c4.266667 0 8.533333 0 17.066666 4.266667L834.56 482.816c25.514667 12.8 25.514667 46.848 0 59.648L570.453333 678.656c-4.266667 4.266667-8.533333 4.266667-17.066666 4.266667-8.448 0-8.448 0-16.981334-4.266667L272.469333 542.464a32.768 32.768 0 0 1 0-59.648l263.936-136.192c8.533333-4.266667 12.8-4.266667 17.066667-4.266667zM383.488 767.061333H722.773333a128.426667 128.426667 0 0 1 0 256.938667H383.402667a128.426667 128.426667 0 0 1 0-256.938667z" p-id="47114"></path></svg>