<?xml version="1.0" standalone="no"?><!DOCTYPE svg PUBLIC "-//W3C//DTD SVG 1.1//EN" "http://www.w3.org/Graphics/SVG/1.1/DTD/svg11.dtd"><svg t="1619343962205" class="icon" viewBox="0 0 1024 1024" version="1.1" xmlns="http://www.w3.org/2000/svg" p-id="43400" xmlns:xlink="http://www.w3.org/1999/xlink" width="64" height="64"><defs><style type="text/css"></style></defs><path d="M896.447566 450.2818c-106.620108-55.209153-233.313538-36.769356-322.696445 46.971373-89.603382 83.780816-125.581029 217.238846-91.80814 340.565009H213.433483L32.312587 956.323941a19.832803 19.832803 0 0 1-21.516437 0.260563A23.731217 23.731217 0 0 1 0.002856 936.32077V186.151753C0.002856 83.349886 76.487926 0 170.761388 0h554.927646c94.313548 0 170.758532 83.349886 170.758532 186.171797zM213.433483 186.171797c-15.252919 0-29.35335 8.879163-36.959767 23.280243a50.218381 50.218381 0 0 0 0 46.550465c7.586373 14.360994 21.676783 23.230135 36.959767 23.250179h469.583456c23.641022-0.090195 42.732225-20.905117 42.672095-46.510379s-19.111246-46.570509-42.672095-46.570508z m0 232.752326c-23.651044 0.090195-42.752268 20.915139-42.672095 46.520401s19.111246 46.550465 42.672095 46.550465h170.718445c23.651044-0.080173 42.772311-20.915139 42.692138-46.5204 0-25.705478-19.111246-46.540444-42.692138-46.540444H213.433483z m576.724689 335.213459V640.271837c0-25.705478-19.111246-46.5204-42.70216-46.520401s-42.752268 20.915139-42.672095 46.520401v139.651396a48.103818 48.103818 0 0 0 15.272962 35.68702 45.097329 45.097329 0 0 0 7.38594 6.103171l109.796965 71.895165a39.605477 39.605477 0 0 0 43.093003 1.403028c13.579307-8.117519 22.047583-23.520763 22.217951-40.317012s-7.93713-32.409947-21.326026-40.848159l-91.106627-59.708864z m-21.776999 269.862418c-141.455289 0-256.122765-125.039861-256.122765-279.252684s114.667476-279.302792 256.122765-279.302792 256.15283 125.059905 256.152829 279.302792-114.687519 279.252684-256.152829 279.252684z" p-id="43401"></path></svg>