<?xml version="1.0" standalone="no"?><!DOCTYPE svg PUBLIC "-//W3C//DTD SVG 1.1//EN" "http://www.w3.org/Graphics/SVG/1.1/DTD/svg11.dtd"><svg t="1619343991279" class="icon" viewBox="0 0 1024 1024" version="1.1" xmlns="http://www.w3.org/2000/svg" p-id="44965" xmlns:xlink="http://www.w3.org/1999/xlink" width="64" height="64"><defs><style type="text/css"></style></defs><path d="M943.91 71.76c-16.35-7.92-32.2-7.92-40.62 0-21.59 11.05-43.24 21.59-64.84 32.64-53.79 26.9-107.01 53.79-160.81 80.69l-205.6 102.77c-59.03 29.57-118.07 60.65-177.6 89.11-45.37 21.59-89.61 45.86-134.47 67.52-19.53 9.48-40.06 15.79-59.53 25.78-15.85 7.92-31.14 20.09-31.14 39.62 0 8.92 1.62 21.53 8.93 27.9 2.68 2.12 5.86 3.68 8.48 5.8 40.06 22.15 78.06 48.54 117.06 72.76l75.88 47.43h0.56c16.35 7.92 32.14 7.92 48.54-7.92l0.5-0.56c0.5-0.5 1-0.5 1-1 0.56-0.56 1.62-1.06 2.12-2.12 1.12-1.06 2.12-1.56 3.18-2.62s2.62-2.12 3.68-3.18c1.56-1.57 3.18-2.62 4.24-4.18 1.56-1.62 3.13-3.18 5.25-4.74 2.12-1.62 3.68-3.68 5.8-5.3 2.12-2.12 4.24-3.68 6.3-5.8 2.12-2.12 4.74-4.18 6.86-6.31 2.68-2.12 4.75-4.74 7.42-6.86 2.62-2.62 5.24-4.74 7.87-7.37 2.68-2.62 5.8-5.3 8.43-7.92 3.18-2.62 5.8-5.25 8.98-7.92 3.18-2.62 6.31-5.8 9.49-8.37 3.18-3.24 6.36-5.86 10.04-9.04 3.12-3.13 6.86-6.31 10.04-8.93 3.63-3.18 6.81-6.36 10.49-9.49 3.69-3.18 7.37-6.36 10.6-10.04 3.63-3.13 7.31-6.87 11.05-10.04 3.68-3.13 7.36-6.81 11.05-9.99 3.69-3.68 7.92-6.86 11.61-10.55 3.68-3.68 7.92-6.86 11.61-10.54 3.68-3.68 7.87-6.86 11.61-10.55 4.18-3.68 7.87-7.36 12.11-10.54 4.24-3.68 7.92-7.37 12.11-10.55 4.24-3.68 7.92-7.36 12.16-11.05 4.19-3.69 7.87-7.37 12.11-11.05 4.18-3.74 7.92-7.42 12.11-10.6 3.68-3.68 7.92-7.36 11.61-10.49 3.68-3.74 7.92-6.86 11.61-10.6 3.68-3.68 7.92-6.81 11.61-10.49 3.68-3.74 7.36-6.86 11.61-10.6 3.68-3.13 7.36-6.81 11.05-9.99 3.69-3.18 7.37-6.86 11.1-10.05 3.69-3.12 7.37-6.3 10.55-9.49 3.68-3.13 6.81-6.3 10.49-9.48 3.18-3.13 6.86-6.3 10.05-8.93 3.18-3.18 6.3-5.8 9.48-8.92 3.18-2.68 6.31-5.86 9.49-8.48 3.18-2.62 5.8-5.24 8.93-7.92 2.68-2.62 5.86-5.25 8.48-7.87 2.62-2.68 5.24-4.8 7.92-7.42 2.62-2.12 4.74-4.19 7.36-6.87 2.12-2.06 4.75-4.18 6.86-6.3 2.12-2.12 4.19-3.68 6.3-5.8 2.12-1.56 3.68-3.18 5.8-5.24l4.74-4.75c1.62-1.12 2.62-2.68 4.24-3.74 1.06-1.01 2.12-2.07 3.69-3.13 1.06-1.12 2.12-1.62 2.62-2.62l3.18-3.18h0.56c2.62 1.06 5.25 2.62 7.87 3.68 1.57 0.56 2.62 1.56 4.24 2.12 0.56 0.56 1.06 0.56 2.06 1.06 0.56 0 2.12 0.56 2.12 1.06v0.51c-0.56 0.56-1.06 0.56-1.06 1.06l-1.57 1.56-6.86 6.87c-3.18 3.18-6.3 6.31-8.93 10.04-2.12 2.07-4.24 4.74-6.36 6.81a22.716 22.716 0 0 0-3.18 3.74l-1.56 1.56c-0.56 0.56-1.06 1.57-1.56 1.57-9.49 10.04-18.97 20.59-28.46 30.58l-74.38 79.12c-28.45 30.02-56.35 60.1-84.87 90.11-26.89 28.46-53.79 56.91-80.12 85.43-20.59 21.59-40.62 43.24-61.15 64.84-8.93 9.48-17.97 18.97-26.89 29.02l-0.56 0.56c-7.87 7.87-7.87 16.29-7.87 24.22v178.22c0 16.35 7.87 32.14 24.22 40.56 16.35 7.92 32.2 0 40.62-7.92l62.72-62.72c10.6-10.54 20.59-21.09 30.58-31.63 1.11-1.06 2.12-2.12 3.18-2.12 1.56-0.56 3.68 0.56 4.74 1.62 35.88 23.71 71.2 48.49 107.02 72.2 26.89 17.91 53.79 35.88 80.13 53.79 8.93 6.31 16.35 9.49 26.89 9.49h16.35c10.05-4.74 19.53-11.05 22.66-22.15 3.18-10.05 3.74-21.59 5.8-31.64 0.56-3.68 1.62-7.92 2.12-11.61 2.12-10.04 3.68-19.53 5.8-29.52 5.3-26.89 10.54-53.79 15.84-80.13L848 686.42c7.36-37.94 15.29-75.88 22.65-114.38l23.71-117.56c7.42-37.39 14.79-74.88 22.71-112.32 6.3-32.64 13.17-65.34 19.53-98.04 4.69-24.77 9.99-49.55 14.73-74.88 2.62-14.23 5.8-28.45 8.43-42.18 0.61-2.05 0.96-4.17 1.06-6.3-1.06-24.77-1.06-41.12-16.85-49.05l-0.06 0.05z m0 0" p-id="44966"></path></svg>