<?xml version="1.0" standalone="no"?><!DOCTYPE svg PUBLIC "-//W3C//DTD SVG 1.1//EN" "http://www.w3.org/Graphics/SVG/1.1/DTD/svg11.dtd"><svg t="1619347027290" class="icon" viewBox="0 0 1024 1024" version="1.1" xmlns="http://www.w3.org/2000/svg" p-id="59754" xmlns:xlink="http://www.w3.org/1999/xlink" width="64" height="64"><defs><style type="text/css"></style></defs><path d="M666.387692 824.083692c-12.603077-30.72-54.193231-83.337846-123.667692-156.356923-18.589538-19.456-17.329231-34.422154-10.712615-78.926769l0.787692-5.041231c4.411077-30.483692 11.972923-48.443077 114.372923-64.748307 51.987692-8.270769 65.693538 12.603077 84.676923 41.353846l6.301539 9.452307c18.116923 26.387692 31.428923 32.452923 51.593846 41.590154 8.979692 4.174769 20.322462 9.294769 35.446154 17.880616 35.761231 20.48 35.761231 43.638154 35.76123 94.365538v5.750154c0 81.053538-29.774769 124.849231-41.432615 138.948923a472.536615 472.536615 0 0 1-152.339692 88.221538c28.041846-52.224 6.616615-114.372923-0.787693-132.489846zM512 41.038769c73.019077 0 142.178462 16.620308 204.012308 46.473846-34.028308 21.425231-82.707692 55.138462-102.793846 82.628923-7.483077 10.161231-13.863385 19.849846-19.692308 28.672-19.692308 29.617231-29.144615 42.771692-47.182769 45.056a200.861538 200.861538 0 0 1-33.713231-0.472615c-34.107077-2.284308-80.738462-5.277538-95.704616 35.446154-9.452308 25.678769-11.185231 95.547077 19.53477 131.859692 4.883692 5.750154 5.828923 16.541538 2.520615 28.514462a55.926154 55.926154 0 0 1-15.990154 27.411692c-5.277538-3.072-15.832615-15.36-23.000615-23.630769-17.250462-20.086154-38.754462-45.056-66.56-52.775385-10.082462-2.835692-21.188923-5.12-31.980308-7.404307-30.089846-6.301538-64.275692-13.548308-72.231384-30.483693-5.750154-12.445538-5.750154-29.538462-5.671385-47.576615 0-22.843077 0-48.836923-11.264-73.964308a70.971077 70.971077 0 0 0-44.819692-39.463384A469.700923 469.700923 0 0 1 512 40.96zM0 512a512 512 0 1 0 1024 0 512 512 0 0 0-1024 0z" p-id="59755"></path></svg>