<?xml version="1.0" standalone="no"?><!DOCTYPE svg PUBLIC "-//W3C//DTD SVG 1.1//EN" "http://www.w3.org/Graphics/SVG/1.1/DTD/svg11.dtd"><svg t="1619313714488" class="icon" viewBox="0 0 1024 1024" version="1.1" xmlns="http://www.w3.org/2000/svg" p-id="51610" xmlns:xlink="http://www.w3.org/1999/xlink" width="64" height="64"><defs><style type="text/css"></style></defs><path d="M960 577.6L893.8 91.3c-2.2-15.8-15.7-27.6-31.7-27.6H163.8c-15.9 0-29.4 11.7-31.7 27.5L64 577.6h0.7l-0.7 0.8v345.4c0 20.2 16.4 36.6 36.6 36.6h822.9c20.2 0 36.6-16.4 36.6-36.6V578.4l-0.7-0.8h0.6z m-64 318.8H128V577.6h768v318.8z" fill="" p-id="51611"></path><path d="M213.6 707.3h84.8c11.9 0 21.6-9.7 21.6-21.6v-20.2c0-11.9-9.7-21.6-21.6-21.6h-84.8c-11.9 0-21.6 9.7-21.6 21.6v20.2c0 11.9 9.7 21.6 21.6 21.6zM213.6 834.8h84.8c11.9 0 21.6-9.7 21.6-21.6V793c0-11.9-9.7-21.6-21.6-21.6h-84.8c-11.9 0-21.6 9.7-21.6 21.6v20.2c0 12 9.7 21.6 21.6 21.6zM414.7 707.3h0.7c17.5 0 31.7-14.2 31.7-31.7v-0.1c0-17.5-14.2-31.7-31.7-31.7h-0.7c-17.5 0-31.7 14.2-31.7 31.7v0.1c0 17.5 14.2 31.7 31.7 31.7zM414.7 834.8h0.7c17.5 0 31.7-14.2 31.7-31.7v-0.1c0-17.5-14.2-31.7-31.7-31.7h-0.7c-17.5 0-31.7 14.2-31.7 31.7v0.1c0 17.6 14.2 31.7 31.7 31.7zM542.7 707.3h0.7c17.5 0 31.7-14.2 31.7-31.7v-0.1c0-17.5-14.2-31.7-31.7-31.7h-0.7c-17.5 0-31.7 14.2-31.7 31.7v0.1c0 17.5 14.2 31.7 31.7 31.7zM542.7 834.8h0.7c17.5 0 31.7-14.2 31.7-31.7v-0.1c0-17.5-14.2-31.7-31.7-31.7h-0.7c-17.5 0-31.7 14.2-31.7 31.7v0.1c0 17.6 14.2 31.7 31.7 31.7zM669.7 707.3h0.7c17.5 0 31.7-14.2 31.7-31.7v-0.1c0-17.5-14.2-31.7-31.7-31.7h-0.7c-17.5 0-31.7 14.2-31.7 31.7v0.1c0 17.5 14.2 31.7 31.7 31.7zM669.7 834.8h0.7c17.5 0 31.7-14.2 31.7-31.7v-0.1c0-17.5-14.2-31.7-31.7-31.7h-0.7c-17.5 0-31.7 14.2-31.7 31.7v0.1c0 17.6 14.2 31.7 31.7 31.7zM797.7 707.3h0.7c17.5 0 31.7-14.2 31.7-31.7v-0.1c0-17.5-14.2-31.7-31.7-31.7h-0.7c-17.5 0-31.7 14.2-31.7 31.7v0.1c0 17.5 14.2 31.7 31.7 31.7zM797.7 834.8h0.7c17.5 0 31.7-14.2 31.7-31.7v-0.1c0-17.5-14.2-31.7-31.7-31.7h-0.7c-17.5 0-31.7 14.2-31.7 31.7v0.1c0 17.6 14.2 31.7 31.7 31.7z" fill="" p-id="51612"></path></svg>