<?xml version="1.0" standalone="no"?><!DOCTYPE svg PUBLIC "-//W3C//DTD SVG 1.1//EN" "http://www.w3.org/Graphics/SVG/1.1/DTD/svg11.dtd"><svg t="1619313727748" class="icon" viewBox="0 0 1024 1024" version="1.1" xmlns="http://www.w3.org/2000/svg" p-id="52459" xmlns:xlink="http://www.w3.org/1999/xlink" width="64" height="64"><defs><style type="text/css"></style></defs><path d="M512 438.830545c90.996364 0 175.941818-8.192 255.022545-24.576 79.034182-16.384 141.451636-40.541091 187.112728-72.564363v97.140363c0 26.298182-19.828364 50.734545-59.345455 73.169455-39.517091 22.481455-93.230545 40.308364-161.186909 53.434182-67.909818 13.125818-141.777455 19.735273-221.602909 19.735273-79.825455 0-153.693091-6.609455-221.649455-19.735273-67.956364-13.172364-121.623273-30.952727-161.233454-53.434182C89.6 489.518545 69.818182 465.128727 69.818182 438.830545V341.690182c45.614545 32.023273 108.078545 56.180364 187.112727 72.610909 79.127273 16.337455 164.072727 24.529455 255.069091 24.529454z m0 438.877091c90.996364 0 175.941818-8.192 255.022545-24.576 79.034182-16.384 141.451636-40.587636 187.112728-72.610909v97.186909c0 26.298182-19.828364 50.688-59.345455 73.122909-39.517091 22.481455-93.230545 40.354909-161.186909 53.434182-67.909818 13.125818-141.777455 19.735273-221.602909 19.735273-79.825455 0-153.693091-6.609455-221.649455-19.735273-67.956364-13.079273-121.669818-30.952727-161.233454-53.434182C89.6 928.395636 69.818182 904.005818 69.818182 877.707636V780.567273c45.614545 31.976727 108.078545 56.180364 187.112727 72.564363 79.127273 16.384 164.072727 24.576 255.069091 24.576z m0-219.415272c90.996364 0 175.941818-8.192 255.022545-24.576 79.034182-16.384 141.451636-40.587636 187.112728-72.564364v97.140364c0 26.298182-19.828364 50.734545-59.345455 73.169454-39.517091 22.481455-93.230545 40.261818-161.186909 53.434182-67.909818 13.125818-141.777455 19.642182-221.602909 19.642182-79.825455 0-153.693091-6.609455-221.649455-19.688727-67.956364-13.125818-121.669818-30.999273-161.233454-53.434182C89.6 708.887273 69.818182 684.544 69.818182 658.245818v-97.093818c45.614545 32.023273 108.078545 56.180364 187.112727 72.610909 79.127273 16.337455 164.072727 24.529455 255.069091 24.529455zM512 0c79.825455 0 153.693091 6.609455 221.649455 19.688727 67.956364 13.125818 121.669818 30.999273 161.233454 53.480728C934.4 95.604364 954.181818 119.994182 954.181818 146.292364v73.169454c0 26.298182-19.781818 50.688-59.298909 73.169455-39.563636 22.434909-93.230545 40.215273-161.233454 53.434182-67.956364 13.125818-141.824 19.642182-221.649455 19.642181-79.825455 0-153.693091-6.609455-221.649455-19.735272-67.956364-13.125818-121.669818-30.952727-161.233454-53.434182C89.6 270.103273 69.818182 245.76 69.818182 219.368727v-73.076363c0-26.298182 19.781818-50.688 59.298909-73.122909 39.563636-22.481455 93.230545-40.354909 161.233454-53.480728C358.306909 6.609455 432.174545 0 512 0z" p-id="52460"></path></svg>