<?xml version="1.0" standalone="no"?><!DOCTYPE svg PUBLIC "-//W3C//DTD SVG 1.1//EN" "http://www.w3.org/Graphics/SVG/1.1/DTD/svg11.dtd"><svg t="1619160556787" class="icon" viewBox="0 0 1024 1024" version="1.1" xmlns="http://www.w3.org/2000/svg" p-id="5656" id="mx_n_1619160556787" xmlns:xlink="http://www.w3.org/1999/xlink" width="64" height="64"><defs><style type="text/css"></style></defs><path d="M96 192h832a32 32 0 0 1 32 32v576a32 32 0 0 1-32 32h-832a32 32 0 0 1-32-32v-576a32 32 0 0 1 32-32z m140.544 328.448l113.856-113.792a32 32 0 1 0-45.248-45.312L169.344 497.152a32 32 0 0 0-8.192 31.232c1.28 5.76 4.16 11.328 8.704 15.872l135.68 135.68a32 32 0 1 0 45.312-45.184L236.544 520.448zM544 640a32 32 0 1 0 0 64h256a32 32 0 1 0 0-64h-256z" p-id="5657" fill="#8a8a8a"></path></svg>