<?xml version="1.0" standalone="no"?><!DOCTYPE svg PUBLIC "-//W3C//DTD SVG 1.1//EN" "http://www.w3.org/Graphics/SVG/1.1/DTD/svg11.dtd"><svg t="1619163488759" class="icon" viewBox="0 0 1024 1024" version="1.1" xmlns="http://www.w3.org/2000/svg" p-id="9535" xmlns:xlink="http://www.w3.org/1999/xlink" width="64" height="64"><defs><style type="text/css"></style></defs><path d="M853.333333 56.888889a56.888889 56.888889 0 0 1 56.888889 56.888889v796.444444a56.888889 56.888889 0 0 1-56.888889 56.888889H170.666667a56.888889 56.888889 0 0 1-56.888889-56.888889V113.777778a56.888889 56.888889 0 0 1 56.888889-56.888889h682.666666z m-142.222222 682.666667h-398.222222a28.444444 28.444444 0 0 0-5.12 56.433777L312.888889 796.444444h398.222222a28.444444 28.444444 0 0 0 5.12-56.433777L711.111111 739.555556z m0-227.555556h-398.222222a28.444444 28.444444 0 0 0-5.12 56.433778L312.888889 568.888889h398.222222a28.444444 28.444444 0 0 0 5.12-56.433778L711.111111 512z m0-227.555556h-398.222222a28.444444 28.444444 0 0 0-5.12 56.433778L312.888889 341.333333h398.222222a28.444444 28.444444 0 0 0 5.12-56.433777L711.111111 284.444444z" fill="#8a8a8a" p-id="9536"></path></svg>