<?xml version="1.0" standalone="no"?><!DOCTYPE svg PUBLIC "-//W3C//DTD SVG 1.1//EN" "http://www.w3.org/Graphics/SVG/1.1/DTD/svg11.dtd"><svg t="1619163642419" class="icon" viewBox="0 0 1024 1024" version="1.1" xmlns="http://www.w3.org/2000/svg" p-id="23215" xmlns:xlink="http://www.w3.org/1999/xlink" width="64" height="64"><defs><style type="text/css"></style></defs><path d="M168.2 552.2h240.4c29.5 0 53.5 23.9 53.5 53.5v240.4c0 29.5-23.9 53.5-53.5 53.5H168.2c-29.5 0-53.5-23.9-53.5-53.5V605.7c0-29.5 23.9-53.5 53.5-53.5m440.5 0h240.4c29.5 0 53.5 23.9 53.5 53.5v240.4c0 29.5-23.9 53.5-53.5 53.5H608.7c-29.5 0-53.5-23.9-53.5-53.5V605.7c0-29.5 24-53.5 53.5-53.5M168.2 118.3h240.4c29.5 0 53.5 23.9 53.5 53.5v240.4c0 29.5-23.9 53.5-53.5 53.5H168.2c-29.5 0-53.5-23.9-53.5-53.5V171.7c0-29.5 23.9-53.4 53.5-53.4" p-id="23216" fill="#8a8a8a"></path></svg>