<?xml version="1.0" standalone="no"?><!DOCTYPE svg PUBLIC "-//W3C//DTD SVG 1.1//EN" "http://www.w3.org/Graphics/SVG/1.1/DTD/svg11.dtd"><svg t="1619163932512" class="icon" viewBox="0 0 1024 1024" version="1.1" xmlns="http://www.w3.org/2000/svg" p-id="26945" xmlns:xlink="http://www.w3.org/1999/xlink" width="64" height="64"><defs><style type="text/css"></style></defs><path d="M671.49 63.95c52.96 0.09 95.87 43 95.95 95.96v238.38a307.572 307.572 0 0 0-72.7-8.65 302.926 302.926 0 0 0-215.85 89.45 302.91 302.91 0 0 0-89.47 215.86 302.696 302.696 0 0 0 75.18 200.67H159.68c-52.98-0.09-95.9-43.03-95.96-96.01V159.9c0.09-52.96 43-95.87 95.96-95.96h511.81zM383.6 447.79H223.68c-17.7 0-31.99 14.29-31.99 31.97 0 17.7 14.29 31.99 31.99 31.99H383.6c17.7 0 31.99-14.29 31.99-31.99 0-17.68-14.29-31.97-31.99-31.97z m223.91-191.93H223.68c-17.7 0-31.99 14.29-31.99 31.99s14.29 31.99 31.99 31.99h383.83c17.69 0 31.99-14.29 31.99-31.99s-14.3-31.99-31.99-31.99z" p-id="26946" fill="#8a8a8a"></path><path d="M881.79 507.86c-49.9-49.99-116.34-77.52-187.07-77.52a262.61 262.61 0 0 0-187.08 77.52c-49.99 49.91-77.52 116.36-77.52 187.08a262.587 262.587 0 0 0 77.52 187.07 262.529 262.529 0 0 0 187.08 77.54c70.2 0.15 137.56-27.77 187.07-77.54 50.01-49.9 77.54-116.34 77.54-187.07a263.27 263.27 0 0 0-77.54-187.08z m-84.84 331.53c-17.62 17.64-38.65 7.21-38.65 7.21S648.53 735.31 635.17 721.35c-13.36-13.81-12.04-28.52-12.04-28.52V566.4c0.3-8.38 10.87-26.17 31.9-26.17 21.13 0 29.52 26.02 29.52 26.02s0.3 79.09 0.3 99.08c0 19.99 7.49 24.84 7.49 24.84l102.12 107.9c-0.01 0.01 20.12 23.68 2.49 41.32z" p-id="26947" fill="#8a8a8a"></path></svg>