<?xml version="1.0" standalone="no"?><!DOCTYPE svg PUBLIC "-//W3C//DTD SVG 1.1//EN" "http://www.w3.org/Graphics/SVG/1.1/DTD/svg11.dtd"><svg t="1619163309302" class="icon" viewBox="0 0 1024 1024" version="1.1" xmlns="http://www.w3.org/2000/svg" p-id="6995" xmlns:xlink="http://www.w3.org/1999/xlink" width="64" height="64"><defs><style type="text/css"></style></defs><path d="M926.254545 479.418182l0.837819-0.791273-184.32-184.32-46.452364 46.498909 138.007273 138.007273-138.612364 138.658909 46.452364 46.452364 184.32-184.32-0.186182-0.186182z m-736.581818-0.605091L327.68 340.805818l-46.452364-46.498909-184.32 184.32 0.791273 0.791273-0.186182 0.186182 184.32 184.32 46.452364-46.452364-138.612364-138.658909zM93.090909 93.090909h837.818182a93.090909 93.090909 0 0 1 93.090909 93.090909v605.090909a93.090909 93.090909 0 0 1-93.090909 93.090909H93.090909a93.090909 93.090909 0 0 1-93.090909-93.090909V186.181818a93.090909 93.090909 0 0 1 93.090909-93.090909z m496.360727 170.216727l-211.781818 366.778182 56.878546 32.861091 211.781818-366.778182-56.878546-32.861091z" fill="#8a8a8a" p-id="6996"></path></svg>