<?xml version="1.0" standalone="no"?><!DOCTYPE svg PUBLIC "-//W3C//DTD SVG 1.1//EN" "http://www.w3.org/Graphics/SVG/1.1/DTD/svg11.dtd"><svg t="1619342465237" class="icon" viewBox="0 0 1024 1024" version="1.1" xmlns="http://www.w3.org/2000/svg" p-id="15887" xmlns:xlink="http://www.w3.org/1999/xlink" width="64" height="64"><defs><style type="text/css"></style></defs><path d="M832.512 63.488q26.624 0 49.664 10.24t40.448 27.648 27.648 40.448 10.24 49.664V896q0 26.624-10.24 49.664t-27.648 40.448-40.448 27.648-49.664 10.24H128q-26.624 0-49.664-10.24t-40.448-27.648-27.648-40.448T0 896V191.488q0-26.624 10.24-49.664t27.648-40.448 40.448-27.648T128 63.488h704.512z m-644.096 860.16q19.456 0 36.864-7.168t30.208-19.968 19.968-30.208 7.168-36.864-7.168-36.864-19.968-30.208T225.28 742.4t-36.864-7.168q-20.48 0-37.376 7.168t-30.208 19.968-20.48 30.208-7.168 36.864 7.168 36.864 20.48 30.208 30.208 19.968 37.376 7.168z m258.048-26.624h36.864q15.36 0 30.208 0.512t31.232 0.512 36.864-1.024q0-93.184-35.84-175.616t-97.28-143.872-143.872-96.768-175.616-35.328Q128 470.016 128 485.376v28.672q0 14.336 0.512 29.184t0.512 37.376q65.536 0 123.392 24.576t100.864 67.584 68.096 100.864 25.088 123.392z m261.12-2.048q36.864 0 49.152 0.512t18.432 1.536 15.872 1.024T832.512 896q0-145.408-55.296-272.896t-150.528-222.72-223.232-150.528-273.408-55.296q-1.024 25.6-1.024 36.864v16.384q0 4.096 0.512 5.632t0.512 7.168 0.512 18.432 0.512 40.448q119.808 0 224.768 45.056t183.296 123.392 123.392 183.296 45.056 223.744z" p-id="15888"></path></svg>