<?xml version="1.0" standalone="no"?><!DOCTYPE svg PUBLIC "-//W3C//DTD SVG 1.1//EN" "http://www.w3.org/Graphics/SVG/1.1/DTD/svg11.dtd"><svg t="1619341017561" class="icon" viewBox="0 0 1024 1024" version="1.1" xmlns="http://www.w3.org/2000/svg" p-id="12527" xmlns:xlink="http://www.w3.org/1999/xlink" width="64" height="64"><defs><style type="text/css"></style></defs><path d="M498.64 518.72c106.88 0 158.56-162.72 158.56-258.08S582.96 88 491.2 88s-166.16 77.2-166.16 172.64 43.44 258.08 173.6 258.08zM530.08 621.92a42.4 42.4 0 0 0-19.28-26.96 39.28 39.28 0 0 0-40.64 0A42.64 42.64 0 0 0 450.72 640v185.44l-27.04 6.72a26.72 26.72 0 0 1-20.32-3.52 27.28 27.28 0 0 1-11.36-16.72l-51.84-222.16-81.68 30.4C144.48 658.4 135.04 729.92 135.04 770.64v75.36a72.72 72.72 0 0 0 71.2 74h283.2a40.56 40.56 0 0 0 40.64-40.56zM835.6 504.48H646.88A46.56 46.56 0 0 0 600 551.2v322.08a46.56 46.56 0 0 0 46.88 46.72h188.72a46.56 46.56 0 0 0 46.72-46.72V551.2a46.88 46.88 0 0 0-46.72-46.72z m-125.36 36.08a3.52 3.52 0 0 1 2.56-1.68h56.88a3.12 3.12 0 0 1 2.56 3.36c0 1.28-1.28 2.16-2.56 2.56H712.8a2.48 2.48 0 0 1-2.56-1.28 2 2 0 0 1 0-2.96z m31.04 352.64a12.72 12.72 0 1 1 12.72-12.72 12.8 12.8 0 0 1-12.72 12.72z m94.32-44.16H646.48v-273.6h188.64z m0 0" p-id="12528"></path></svg>