<?xml version="1.0" standalone="no"?><!DOCTYPE svg PUBLIC "-//W3C//DTD SVG 1.1//EN" "http://www.w3.org/Graphics/SVG/1.1/DTD/svg11.dtd"><svg t="1619344731424" class="icon" viewBox="0 0 1024 1024" version="1.1" xmlns="http://www.w3.org/2000/svg" p-id="56810" xmlns:xlink="http://www.w3.org/1999/xlink" width="64" height="64"><defs><style type="text/css"></style></defs><path d="M786.432 552.96c-102.4 0-184.32 81.92-184.32 184.32s81.92 184.32 184.32 184.32 184.32-81.92 184.32-184.32-81.92-184.32-184.32-184.32z m-94.208 135.168l55.296-55.296c8.192-8.192 20.48-8.192 28.672 0s8.192 20.48 0 28.672l-20.48 20.48h108.544c10.24 0 20.48 10.24 20.48 20.48s-8.192 20.48-20.48 20.48h-157.696c-4.096 0-10.24-2.048-14.336-6.144-4.096-4.096-6.144-8.192-6.144-14.336 0-4.096 2.048-10.24 6.144-14.336z m188.416 104.448l-49.152 49.152c-8.192 8.192-20.48 8.192-28.672 0s-8.192-20.48 0-28.672l14.336-14.336h-108.544c-10.24 0-20.48-10.24-20.48-20.48 0-12.288 8.192-20.48 20.48-20.48h157.696c8.192 0 16.384 4.096 18.432 12.288 4.096 8.192 2.048 16.384-4.096 22.528z" p-id="56811"></path><path d="M727.04 98.304h-491.52c-57.344 0-106.496 47.104-106.496 102.4v614.4c0 57.344 49.152 102.4 106.496 102.4h423.936c-16.384-12.288-30.72-24.576-45.056-40.96H235.52c-34.816 0-65.536-26.624-65.536-61.44V516.096h614.4c20.48 0 40.96 2.048 40.96 4.096V200.704c0-57.344-43.008-102.4-98.304-102.4z m-167.936 157.696c10.24 0 20.48 8.192 20.48 20.48 0 10.24-10.24 20.48-20.48 20.48h-61.44v24.576h61.44c10.24 0 20.48 10.24 20.48 20.48 0 12.288-10.24 20.48-20.48 20.48h-61.44v69.632c0 12.288-10.24 20.48-20.48 20.48s-20.48-8.192-20.48-20.48v-69.632h-61.44c-10.24 0-20.48-8.192-20.48-20.48 0-10.24 10.24-20.48 20.48-20.48h61.44v-24.576h-61.44c-10.24 0-20.48-10.24-20.48-20.48 0-12.288 10.24-20.48 20.48-20.48h26.624l-45.056-45.056c-8.192-8.192-8.192-20.48 0-28.672s20.48-8.192 28.672 0l63.488 63.488c2.048 0 2.048 2.048 2.048 2.048h8.192c2.048 0 2.048-2.048 2.048-2.048l63.488-63.488c8.192-8.192 20.48-8.192 28.672 0 8.192 6.144 8.192 20.48 2.048 28.672l-45.056 45.056h28.672z" p-id="56812"></path><path d="M552.96 624.64H225.28c-12.288 0-20.48 10.24-20.48 20.48s8.192 20.48 20.48 20.48h327.68c10.24 0 20.48-10.24 20.48-20.48s-10.24-20.48-20.48-20.48zM552.96 743.424H225.28c-12.288 0-20.48 10.24-20.48 20.48 0 12.288 8.192 20.48 20.48 20.48h327.68c10.24 0 20.48-8.192 20.48-20.48s-10.24-20.48-20.48-20.48z" p-id="56813"></path></svg>