<?xml version="1.0" standalone="no"?><!DOCTYPE svg PUBLIC "-//W3C//DTD SVG 1.1//EN" "http://www.w3.org/Graphics/SVG/1.1/DTD/svg11.dtd"><svg t="1619344759809" class="icon" viewBox="0 0 1024 1024" version="1.1" xmlns="http://www.w3.org/2000/svg" p-id="58229" xmlns:xlink="http://www.w3.org/1999/xlink" width="64" height="64"><defs><style type="text/css"></style></defs><path d="M900.103607 51.895636H121.034224c-24.285393 0-46.020658 21.724505-46.020658 46.009898v845.964505c0 18.539536 12.148077 36.44423 30.687612 42.824929 3.18497 3.19573 8.941587 3.19573 15.343806 3.195729 12.137317 0 24.909475-6.412979 36.41195-15.343806l95.226286-104.200153 95.226286 104.200153c9.597949 8.930827 21.735265 15.343806 33.872582 15.343806s24.930995-6.412979 33.872582-15.343806l95.247807-104.200153 93.924322 104.200153c18.550296 18.528776 49.205628 18.528776 67.755924 0l98.422016-104.200153 95.237046 104.200153c12.148077 15.343806 30.676852 18.528776 49.205628 12.148077 18.539536-5.745857 30.687612-24.296153 30.687613-42.824929V97.905534c0-24.285393-21.735265-46.009898-46.031419-46.009898zM308.291067 284.237015H627.207667c24.296153 0 46.009898 21.735265 46.009898 46.009898 0 24.930995-21.724505 46.020658-46.009898 46.020659H308.291067c-24.296153 0-46.009898-21.735265-46.009898-46.020659s21.724505-46.009898 46.009898-46.009898z m404.555697 313.159982H308.291067c-24.296153 0-46.009898-21.735265-46.009898-46.009899 0-24.285393 21.724505-46.009898 46.009898-46.009898h404.555697c24.296153 0 46.009898 21.735265 46.009898 46.009898s-21.078903 46.009898-46.009898 46.009899z" p-id="58230"></path></svg>