<?xml version="1.0" standalone="no"?><!DOCTYPE svg PUBLIC "-//W3C//DTD SVG 1.1//EN" "http://www.w3.org/Graphics/SVG/1.1/DTD/svg11.dtd"><svg t="1619344659643" class="icon" viewBox="0 0 1024 1024" version="1.1" xmlns="http://www.w3.org/2000/svg" p-id="52031" xmlns:xlink="http://www.w3.org/1999/xlink" width="64" height="64"><defs><style type="text/css"></style></defs><path d="M811.98728984 174.52189268h-155.62042382a36.14155137 36.14155137 0 0 1-35.63908682-28.13800958 112.26491807 112.26491807 0 0 0-217.49533418 0 36.14155137 36.14155137 0 0 1-35.6390877 28.13800958H211.97293349A55.23520166 55.23520166 0 0 0 155.76869375 230.7261333v675.02512266a55.23520166 55.23520166 0 0 0 56.24013076 56.24013076h599.9425752a55.23520166 55.23520166 0 0 0 56.24012988-56.24013076V230.7261333a55.23520166 55.23520166 0 0 0-56.24012988-56.24013077z m-337.3689999 0h75.01076631a17.72981807 17.72981807 0 0 1 18.73474717 18.73474716 17.72981807 17.72981807 0 0 1-18.73474717 18.73474629h-75.01076631a17.72981807 17.72981807 0 0 1-18.73474716-18.73474629 17.72981807 17.72981807 0 0 1 18.62707587-18.73474716z m112.48025977 581.24371992H287.12726211a18.73474629 18.73474629 0 0 1 0-37.50538359h299.9712876a18.73474629 18.73474629 0 0 1 0 37.50538359z m75.01076719-168.68450039H287.01959083a18.73474629 18.73474629 0 0 1-1e-8-37.50538359h374.98205478a18.73474629 18.73474629 0 0 1 0 37.50538359z m75.01076718-168.68450039H287.01959083a18.73474629 18.73474629 0 0 1-1e-8-37.5053836h449.95693184a18.73474629 18.73474629 0 0 1 0 37.5053836z" fill="#515151" p-id="52032"></path></svg>