<?xml version="1.0" standalone="no"?><!DOCTYPE svg PUBLIC "-//W3C//DTD SVG 1.1//EN" "http://www.w3.org/Graphics/SVG/1.1/DTD/svg11.dtd"><svg t="1619344647809" class="icon" viewBox="0 0 1024 1024" version="1.1" xmlns="http://www.w3.org/2000/svg" p-id="51245" xmlns:xlink="http://www.w3.org/1999/xlink" width="64" height="64"><defs><style type="text/css"></style></defs><path d="M512 141.552941h370.447059c15.058824 0 27.105882 0 42.164706 3.011765 66.258824 9.035294 99.388235 45.176471 99.388235 111.435294v499.952941c0 72.282353-48.188235 123.482353-120.470588 123.482353H120.470588c-72.282353 0-117.458824-45.176471-117.458823-117.458823V262.023529c0-81.317647 39.152941-120.470588 120.470588-120.470588H512z m-114.447059 569.22353c0-33.129412 3.011765-63.247059 0-93.364706-3.011765-36.141176-30.117647-72.282353-69.270588-75.294118-48.188235-3.011765-96.376471-3.011765-147.576471 0-33.129412 3.011765-60.235294 24.094118-66.258823 57.223529-6.023529 36.141176-3.011765 72.282353-6.02353 111.435295h289.129412z m-54.211765-316.235295c0-48.188235-39.152941-84.329412-87.341176-84.329411-48.188235 0-87.341176 39.152941-87.341176 87.341176 0 48.188235 39.152941 87.341176 87.341176 87.341177 51.2-3.011765 87.341176-39.152941 87.341176-90.352942z m337.317648 204.8h135.529411c27.105882 0 39.152941-9.035294 39.152941-30.117647s-9.035294-33.129412-36.141176-33.129411h-274.070588c-27.105882 0-39.152941 12.047059-36.141177 36.141176 0 21.082353 12.047059 30.117647 39.152941 30.117647 45.176471-3.011765 90.352941-3.011765 132.517648-3.011765z m3.011764 117.458824h135.529412c27.105882 0 39.152941-12.047059 39.152941-30.117647s-12.047059-33.129412-36.141176-33.129412h-274.070589c-9.035294 0-21.082353 3.011765-24.094117 9.035294-6.023529 9.035294-12.047059 24.094118-6.02353 30.117647 6.023529 9.035294 21.082353 21.082353 33.129412 21.082353 39.152941 3.011765 84.329412 3.011765 132.517647 3.011765z m48.188236-231.905882h87.341176c24.094118 0 39.152941-12.047059 39.152941-30.117647 0-24.094118-18.070588-30.117647-36.141176-30.117647h-177.694118c-24.094118 0-39.152941 15.058824-36.141176 30.117647 3.011765 21.082353 18.070588 30.117647 39.152941 30.117647h84.329412z" p-id="51246"></path></svg>