<?xml version="1.0" standalone="no"?><!DOCTYPE svg PUBLIC "-//W3C//DTD SVG 1.1//EN" "http://www.w3.org/Graphics/SVG/1.1/DTD/svg11.dtd"><svg t="1619344770291" class="icon" viewBox="0 0 1024 1024" version="1.1" xmlns="http://www.w3.org/2000/svg" p-id="58996" xmlns:xlink="http://www.w3.org/1999/xlink" width="64" height="64"><defs><style type="text/css"></style></defs><path d="M128 64a128 128 0 0 0-128 128v192a128 128 0 1 1 0 256v192a128 128 0 0 0 128 128h768a128 128 0 0 0 128-128v-192a128 128 0 1 1 0-256V192a128 128 0 0 0-128-128H128z m226.432 204.288a48.64 48.64 0 0 1 64.96 0.256L512 354.752l92.608-86.208a48.64 48.64 0 0 1 64.96-0.256 40.128 40.128 0 0 1 0.256 59.904l-89.344 83.2h77.632c25.344 0 45.888 18.944 45.888 42.368 0 23.36-20.544 42.368-45.888 42.368H557.888v51.2h100.224c25.344 0 45.888 18.944 45.888 42.368 0 23.36-20.544 42.368-45.888 42.368H557.888v93.568c0 23.424-20.48 42.368-45.888 42.368-25.344 0-45.952-18.944-45.952-42.368V632.064H365.888c-25.344 0-45.888-19.008-45.888-42.368 0-23.424 20.544-42.368 45.888-42.368h100.16v-51.2H365.888C340.544 496.128 320 477.12 320 453.76c0-23.424 20.544-42.368 45.888-42.368H443.52l-89.344-83.2a40.128 40.128 0 0 1 0.256-59.904z" p-id="58997"></path></svg>