<?xml version="1.0" standalone="no"?><!DOCTYPE svg PUBLIC "-//W3C//DTD SVG 1.1//EN" "http://www.w3.org/Graphics/SVG/1.1/DTD/svg11.dtd"><svg t="1619313600381" class="icon" viewBox="0 0 1024 1024" version="1.1" xmlns="http://www.w3.org/2000/svg" p-id="48605" xmlns:xlink="http://www.w3.org/1999/xlink" width="64" height="64"><defs><style type="text/css"></style></defs><path d="M924.814222 385.592889a446.691556 446.691556 0 0 0-96-142.392889A446.691556 446.691556 0 0 0 512 111.985778 446.691556 446.691556 0 0 0 195.214222 243.2 446.691556 446.691556 0 0 0 64 559.985778c0 132.721778 58.311111 257.706667 159.886222 343.125333l1.706667 1.393778c5.802667 4.807111 13.084444 7.509333 20.593778 7.509333h531.712c7.509333 0 14.791111-2.702222 20.593777-7.509333l1.706667-1.422222a447.431111 447.431111 0 0 0 159.800889-343.068445c0-60.501333-11.889778-119.125333-35.185778-174.421333z m-442.823111-153.6c0-4.380444 3.612444-7.992889 8.021333-7.992889h43.975112c4.408889 0 8.021333 3.612444 8.021333 7.992889v80.014222a8.021333 8.021333 0 0 1-8.021333 7.992889h-43.975112a8.021333 8.021333 0 0 1-8.021333-7.992889V231.992889zM269.994667 582.001778a8.021333 8.021333 0 0 1-7.992889 7.992889H181.987556a8.021333 8.021333 0 0 1-7.964445-7.992889v-44.003556c0-4.408889 3.584-7.992889 7.964445-7.992889h80.014222c4.408889 0 7.992889 3.584 7.992889 7.992889v44.003556z m90.709333-204.515556l-31.089778 31.118222a8.021333 8.021333 0 0 1-11.320889 0l-56.604444-56.604444a8.021333 8.021333 0 0 1 0-11.292444l31.118222-31.118223a8.021333 8.021333 0 0 1 11.292445 0l56.604444 56.604445a8.021333 8.021333 0 0 1 0 11.292444z m291.100444 83.626667l-84.48 84.48a55.864889 55.864889 0 0 1-32.711111 66.275555 56.007111 56.007111 0 1 1-6.912-105.870222l84.48-84.48a8.021333 8.021333 0 0 1 11.320889 0l28.302222 28.273778a8.021333 8.021333 0 0 1 0 11.292444z m43.008-52.423111l-31.118222-31.089778a8.021333 8.021333 0 0 1 0-11.292444l56.604445-56.604445a8.021333 8.021333 0 0 1 11.292444 0l31.118222 31.089778a8.021333 8.021333 0 0 1 0 11.320889l-56.604444 56.604444a8.021333 8.021333 0 0 1-11.292445 0z m151.182223 173.312a8.021333 8.021333 0 0 1-7.992889 7.992889h-80.014222a8.021333 8.021333 0 0 1-7.964445-7.992889v-44.003556c0-4.408889 3.584-7.992889 7.964445-7.992889h80.014222c4.408889 0 7.992889 3.584 7.992889 7.992889v44.003556z" p-id="48606"></path></svg>